<svg width="59" height="75" viewBox="0 0 59 75" fill="none" xmlns="http://www.w3.org/2000/svg">
<mask id="path-1-outside-1_722_1891" maskUnits="userSpaceOnUse" x="1" y="8" width="58" height="17" fill="black">
<rect fill="white" x="1" y="8" width="58" height="17"/>
<path d="M7 24.2613C3.62133 24.2613 1.624 22.376 1.624 17.8027V10.1867H4.368V18.0453C4.368 20.9013 5.376 21.872 7 21.872C8.624 21.872 9.688 20.9013 9.688 18.0453V10.1867H12.3387V17.8027C12.3387 22.376 10.3787 24.2613 7 24.2613ZM15.8115 24V13.5653H18.0329L18.2569 14.9467H18.3129C19.2089 14.0507 20.2915 13.304 21.7102 13.304C23.9502 13.304 24.9395 14.872 24.9395 17.4853V24H22.1955V17.84C22.1955 16.1973 21.7289 15.656 20.7209 15.656C19.8622 15.656 19.3209 16.0667 18.5555 16.8133V24H15.8115ZM31.8205 24.2613C29.2072 24.2613 27.5272 22.2267 27.5272 18.792C27.5272 15.376 29.6739 13.304 31.9139 13.304C33.0899 13.304 33.8179 13.7333 34.5832 14.424L34.4712 12.7813V9.12266H37.2152V24H34.9752L34.7699 22.9173H34.7139C33.9485 23.6827 32.9032 24.2613 31.8205 24.2613ZM32.5112 22.0027C33.2579 22.0027 33.8739 21.704 34.4712 20.9387V16.3467C33.8552 15.768 33.1832 15.544 32.5299 15.544C31.3539 15.544 30.3459 16.664 30.3459 18.7547C30.3459 20.9387 31.1485 22.0027 32.5112 22.0027ZM45.0842 24.2613C42.1536 24.2613 39.8762 22.2453 39.8762 18.792C39.8762 15.3947 42.2656 13.304 44.7296 13.304C47.6229 13.304 49.0976 15.3947 49.0976 18.288C49.0976 18.8107 49.0416 19.296 48.9856 19.5573H42.5269C42.7696 21.2747 43.8896 22.152 45.4389 22.152C46.2789 22.152 47.0256 21.8907 47.7909 21.424L48.7056 23.1227C47.6789 23.832 46.3722 24.2613 45.0842 24.2613ZM42.4896 17.728H46.7642C46.7642 16.3093 46.1296 15.4133 44.7856 15.4133C43.6842 15.4133 42.7136 16.1973 42.4896 17.728ZM51.7493 24V13.5653H53.9706L54.1946 15.4133H54.2506C54.9973 14.032 56.1359 13.304 57.2186 13.304C57.7786 13.304 58.1146 13.3787 58.4319 13.528L57.9653 15.88C57.5919 15.7867 57.3119 15.712 56.8639 15.712C56.0613 15.712 55.0719 16.272 54.4933 17.784V24H51.7493Z"/>
</mask>
<path d="M7 24.2613C3.62133 24.2613 1.624 22.376 1.624 17.8027V10.1867H4.368V18.0453C4.368 20.9013 5.376 21.872 7 21.872C8.624 21.872 9.688 20.9013 9.688 18.0453V10.1867H12.3387V17.8027C12.3387 22.376 10.3787 24.2613 7 24.2613ZM15.8115 24V13.5653H18.0329L18.2569 14.9467H18.3129C19.2089 14.0507 20.2915 13.304 21.7102 13.304C23.9502 13.304 24.9395 14.872 24.9395 17.4853V24H22.1955V17.84C22.1955 16.1973 21.7289 15.656 20.7209 15.656C19.8622 15.656 19.3209 16.0667 18.5555 16.8133V24H15.8115ZM31.8205 24.2613C29.2072 24.2613 27.5272 22.2267 27.5272 18.792C27.5272 15.376 29.6739 13.304 31.9139 13.304C33.0899 13.304 33.8179 13.7333 34.5832 14.424L34.4712 12.7813V9.12266H37.2152V24H34.9752L34.7699 22.9173H34.7139C33.9485 23.6827 32.9032 24.2613 31.8205 24.2613ZM32.5112 22.0027C33.2579 22.0027 33.8739 21.704 34.4712 20.9387V16.3467C33.8552 15.768 33.1832 15.544 32.5299 15.544C31.3539 15.544 30.3459 16.664 30.3459 18.7547C30.3459 20.9387 31.1485 22.0027 32.5112 22.0027ZM45.0842 24.2613C42.1536 24.2613 39.8762 22.2453 39.8762 18.792C39.8762 15.3947 42.2656 13.304 44.7296 13.304C47.6229 13.304 49.0976 15.3947 49.0976 18.288C49.0976 18.8107 49.0416 19.296 48.9856 19.5573H42.5269C42.7696 21.2747 43.8896 22.152 45.4389 22.152C46.2789 22.152 47.0256 21.8907 47.7909 21.424L48.7056 23.1227C47.6789 23.832 46.3722 24.2613 45.0842 24.2613ZM42.4896 17.728H46.7642C46.7642 16.3093 46.1296 15.4133 44.7856 15.4133C43.6842 15.4133 42.7136 16.1973 42.4896 17.728ZM51.7493 24V13.5653H53.9706L54.1946 15.4133H54.2506C54.9973 14.032 56.1359 13.304 57.2186 13.304C57.7786 13.304 58.1146 13.3787 58.4319 13.528L57.9653 15.88C57.5919 15.7867 57.3119 15.712 56.8639 15.712C56.0613 15.712 55.0719 16.272 54.4933 17.784V24H51.7493Z" fill="#FF607C"/>
<path d="M1.624 10.1867V9.83667H1.274V10.1867H1.624ZM4.368 10.1867H4.718V9.83667H4.368V10.1867ZM9.688 10.1867V9.83667H9.338V10.1867H9.688ZM12.3387 10.1867H12.6887V9.83667H12.3387V10.1867ZM7 23.9113C5.37534 23.9113 4.14207 23.4599 3.30727 22.5152C2.46497 21.5621 1.974 20.0463 1.974 17.8027H1.274C1.274 20.1324 1.78169 21.8459 2.78273 22.9788C3.79126 24.1201 5.24599 24.6113 7 24.6113V23.9113ZM1.974 17.8027V10.1867H1.274V17.8027H1.974ZM1.624 10.5367H4.368V9.83667H1.624V10.5367ZM4.018 10.1867V18.0453H4.718V10.1867H4.018ZM4.018 18.0453C4.018 19.5021 4.27274 20.5514 4.79618 21.2412C5.33597 21.9526 6.11352 22.222 7 22.222V21.522C6.26249 21.522 5.72403 21.306 5.35382 20.8181C4.96726 20.3086 4.718 19.4445 4.718 18.0453H4.018ZM7 22.222C7.88571 22.222 8.67492 21.9533 9.2287 21.2453C9.76805 20.5557 10.038 19.5056 10.038 18.0453H9.338C9.338 19.4411 9.07596 20.3043 8.67731 20.814C8.29308 21.3053 7.7383 21.522 7 21.522V22.222ZM10.038 18.0453V10.1867H9.338V18.0453H10.038ZM9.688 10.5367H12.3387V9.83667H9.688V10.5367ZM11.9887 10.1867V17.8027H12.6887V10.1867H11.9887ZM11.9887 17.8027C11.9887 20.0477 11.5064 21.5637 10.6729 22.5166C9.8476 23.4601 8.62452 23.9113 7 23.9113V24.6113C8.75415 24.6113 10.2004 24.1199 11.1998 22.9774C12.1909 21.8443 12.6887 20.1309 12.6887 17.8027H11.9887ZM15.8115 24H15.4615V24.35H15.8115V24ZM15.8115 13.5653V13.2153H15.4615V13.5653H15.8115ZM18.0329 13.5653L18.3784 13.5093L18.3307 13.2153H18.0329V13.5653ZM18.2569 14.9467L17.9114 15.0027L17.9591 15.2967H18.2569V14.9467ZM18.3129 14.9467V15.2967H18.4579L18.5604 15.1942L18.3129 14.9467ZM24.9395 24V24.35H25.2895V24H24.9395ZM22.1955 24H21.8455V24.35H22.1955V24ZM18.5555 16.8133L18.3111 16.5628L18.2055 16.6658V16.8133H18.5555ZM18.5555 24V24.35H18.9055V24H18.5555ZM16.1615 24V13.5653H15.4615V24H16.1615ZM15.8115 13.9153H18.0329V13.2153H15.8115V13.9153ZM17.6874 13.6214L17.9114 15.0027L18.6024 14.8906L18.3784 13.5093L17.6874 13.6214ZM18.2569 15.2967H18.3129V14.5967H18.2569V15.2967ZM18.5604 15.1942C19.4295 14.325 20.4277 13.654 21.7102 13.654V12.954C20.1554 12.954 18.9883 13.7763 18.0654 14.6992L18.5604 15.1942ZM21.7102 13.654C22.7389 13.654 23.4324 14.008 23.8827 14.6217C24.3471 15.2546 24.5895 16.2133 24.5895 17.4853H25.2895C25.2895 16.1441 25.0373 15.012 24.4471 14.2076C23.8427 13.384 22.9215 12.954 21.7102 12.954V13.654ZM24.5895 17.4853V24H25.2895V17.4853H24.5895ZM24.9395 23.65H22.1955V24.35H24.9395V23.65ZM22.5455 24V17.84H21.8455V24H22.5455ZM22.5455 17.84C22.5455 17.0033 22.4304 16.3629 22.1213 15.9289C21.7892 15.4627 21.2897 15.306 20.7209 15.306V16.006C21.16 16.006 21.3979 16.12 21.5511 16.3351C21.7274 16.5825 21.8455 17.034 21.8455 17.84H22.5455ZM20.7209 15.306C19.7132 15.306 19.0835 15.8092 18.3111 16.5628L18.8 17.0639C19.5582 16.3241 20.0113 16.006 20.7209 16.006V15.306ZM18.2055 16.8133V24H18.9055V16.8133H18.2055ZM18.5555 23.65H15.8115V24.35H18.5555V23.65ZM34.5832 14.424L34.3487 14.6838L34.9913 15.2637L34.9324 14.4002L34.5832 14.424ZM34.4712 12.7813H34.1212V12.7933L34.122 12.8051L34.4712 12.7813ZM34.4712 9.12266V8.77266H34.1212V9.12266H34.4712ZM37.2152 9.12266H37.5652V8.77266H37.2152V9.12266ZM37.2152 24V24.35H37.5652V24H37.2152ZM34.9752 24L34.6313 24.0652L34.6854 24.35H34.9752V24ZM34.7699 22.9173L35.1137 22.8521L35.0597 22.5673H34.7699V22.9173ZM34.7139 22.9173V22.5673H34.5689L34.4664 22.6698L34.7139 22.9173ZM34.4712 20.9387L34.7471 21.154L34.8212 21.0591V20.9387H34.4712ZM34.4712 16.3467H34.8212V16.1952L34.7108 16.0916L34.4712 16.3467ZM31.8205 23.9113C30.6134 23.9113 29.6437 23.4459 28.9677 22.5967C28.2846 21.7385 27.8772 20.4566 27.8772 18.792H27.1772C27.1772 20.5621 27.6098 22.0148 28.42 23.0326C29.2374 24.0595 30.4144 24.6113 31.8205 24.6113V23.9113ZM27.8772 18.792C27.8772 15.5196 29.9134 13.654 31.9139 13.654V12.954C29.4344 12.954 27.1772 15.2324 27.1772 18.792H27.8772ZM31.9139 13.654C32.9753 13.654 33.6234 14.0292 34.3487 14.6838L34.8177 14.1642C34.0124 13.4374 33.2045 12.954 31.9139 12.954V13.654ZM34.9324 14.4002L34.8204 12.7575L34.122 12.8051L34.234 14.4478L34.9324 14.4002ZM34.8212 12.7813V9.12266H34.1212V12.7813H34.8212ZM34.4712 9.47266H37.2152V8.77266H34.4712V9.47266ZM36.8652 9.12266V24H37.5652V9.12266H36.8652ZM37.2152 23.65H34.9752V24.35H37.2152V23.65ZM35.3191 23.9348L35.1137 22.8521L34.426 22.9826L34.6313 24.0652L35.3191 23.9348ZM34.7699 22.5673H34.7139V23.2673H34.7699V22.5673ZM34.4664 22.6698C33.7431 23.3931 32.7817 23.9113 31.8205 23.9113V24.6113C33.0247 24.6113 34.1539 23.9722 34.9614 23.1648L34.4664 22.6698ZM32.5112 22.3527C33.382 22.3527 34.0942 21.9906 34.7471 21.154L34.1953 20.7233C33.6536 21.4174 33.1337 21.6527 32.5112 21.6527V22.3527ZM34.8212 20.9387V16.3467H34.1212V20.9387H34.8212ZM34.7108 16.0916C34.0289 15.451 33.2709 15.194 32.5299 15.194V15.894C33.0956 15.894 33.6815 16.085 34.2316 16.6018L34.7108 16.0916ZM32.5299 15.194C31.8208 15.194 31.174 15.5351 30.7151 16.1577C30.2604 16.7747 29.9959 17.6565 29.9959 18.7547H30.6959C30.6959 17.7622 30.9354 17.0387 31.2786 16.573C31.6178 16.1129 32.063 15.894 32.5299 15.894V15.194ZM29.9959 18.7547C29.9959 19.8804 30.2012 20.7742 30.6292 21.3961C31.0711 22.0381 31.7249 22.3527 32.5112 22.3527V21.6527C31.9349 21.6527 31.506 21.4352 31.2058 20.9992C30.8919 20.5431 30.6959 19.8129 30.6959 18.7547H29.9959ZM48.9856 19.5573V19.9073H49.2685L49.3278 19.6307L48.9856 19.5573ZM42.5269 19.5573V19.2073H42.124L42.1803 19.6063L42.5269 19.5573ZM47.7909 21.424L48.0991 21.2581L47.924 20.9329L47.6087 21.1252L47.7909 21.424ZM48.7056 23.1227L48.9045 23.4106L49.1622 23.2326L49.0137 22.9567L48.7056 23.1227ZM42.4896 17.728L42.1433 17.6773L42.0846 18.078H42.4896V17.728ZM46.7642 17.728V18.078H47.1142V17.728H46.7642ZM45.0842 23.9113C43.7002 23.9113 42.491 23.4365 41.6287 22.5742C40.7676 21.7131 40.2262 20.4393 40.2262 18.792H39.5262C39.5262 20.5981 40.1235 22.0589 41.1337 23.0692C42.1428 24.0782 43.5376 24.6113 45.0842 24.6113V23.9113ZM40.2262 18.792C40.2262 15.5728 42.4737 13.654 44.7296 13.654V12.954C42.0575 12.954 39.5262 15.2165 39.5262 18.792H40.2262ZM44.7296 13.654C46.0843 13.654 47.0724 14.1392 47.7287 14.9339C48.3926 15.7378 48.7476 16.8963 48.7476 18.288H49.4476C49.4476 16.7864 49.0652 15.4529 48.2684 14.4881C47.464 13.5141 46.2681 12.954 44.7296 12.954V13.654ZM48.7476 18.288C48.7476 18.791 48.6932 19.2512 48.6433 19.484L49.3278 19.6307C49.3899 19.3408 49.4476 18.8304 49.4476 18.288H48.7476ZM48.9856 19.2073H42.5269V19.9073H48.9856V19.2073ZM42.1803 19.6063C42.3112 20.5321 42.6843 21.2643 43.2645 21.7639C43.844 22.2629 44.5977 22.502 45.4389 22.502V21.802C44.7308 21.802 44.1498 21.6025 43.7213 21.2334C43.2935 20.8651 42.9853 20.2999 42.8735 19.5084L42.1803 19.6063ZM45.4389 22.502C46.3592 22.502 47.1684 22.2135 47.9731 21.7228L47.6087 21.1252C46.8827 21.5678 46.1986 21.802 45.4389 21.802V22.502ZM47.4827 21.5899L48.3974 23.2886L49.0137 22.9567L48.0991 21.2581L47.4827 21.5899ZM48.5066 22.8347C47.5361 23.5053 46.2984 23.9113 45.0842 23.9113V24.6113C46.4461 24.6113 47.8217 24.1587 48.9045 23.4106L48.5066 22.8347ZM42.4896 18.078H46.7642V17.378H42.4896V18.078ZM47.1142 17.728C47.1142 16.9732 46.9463 16.3041 46.5503 15.8177C46.1447 15.3194 45.5413 15.0633 44.7856 15.0633V15.7633C45.3738 15.7633 45.7598 15.9553 46.0075 16.2596C46.2649 16.5759 46.4142 17.0641 46.4142 17.728H47.1142ZM44.7856 15.0633C44.1489 15.0633 43.5436 15.2913 43.0677 15.7427C42.5928 16.1932 42.2645 16.8485 42.1433 17.6773L42.8359 17.7787C42.9386 17.0768 43.2076 16.5748 43.5494 16.2506C43.8902 15.9274 44.3209 15.7633 44.7856 15.7633V15.0633ZM51.7493 24H51.3993V24.35H51.7493V24ZM51.7493 13.5653V13.2153H51.3993V13.5653H51.7493ZM53.9706 13.5653L54.318 13.5232L54.2807 13.2153H53.9706V13.5653ZM54.1946 15.4133L53.8471 15.4554L53.8844 15.7633H54.1946V15.4133ZM54.2506 15.4133V15.7633H54.4593L54.5585 15.5798L54.2506 15.4133ZM58.4319 13.528L58.7752 13.5961L58.8285 13.3278L58.5809 13.2113L58.4319 13.528ZM57.9653 15.88L57.8804 16.2195L58.237 16.3087L58.3086 15.9481L57.9653 15.88ZM54.4933 17.784L54.1664 17.6589L54.1433 17.7193V17.784H54.4933ZM54.4933 24V24.35H54.8433V24H54.4933ZM52.0993 24V13.5653H51.3993V24H52.0993ZM51.7493 13.9153H53.9706V13.2153H51.7493V13.9153ZM53.6231 13.6074L53.8471 15.4554L54.542 15.3712L54.318 13.5232L53.6231 13.6074ZM54.1946 15.7633H54.2506V15.0633H54.1946V15.7633ZM54.5585 15.5798C55.2623 14.2777 56.2988 13.654 57.2186 13.654V12.954C55.973 12.954 54.7322 13.7863 53.9427 15.2469L54.5585 15.5798ZM57.2186 13.654C57.7421 13.654 58.0241 13.7229 58.2829 13.8447L58.5809 13.2113C58.2051 13.0344 57.8151 12.954 57.2186 12.954V13.654ZM58.0886 13.4599L57.6219 15.8119L58.3086 15.9481L58.7752 13.5961L58.0886 13.4599ZM58.0501 15.5404C57.6774 15.4473 57.3597 15.362 56.8639 15.362V16.062C57.2642 16.062 57.5065 16.1261 57.8804 16.2195L58.0501 15.5404ZM56.8639 15.362C55.8828 15.362 54.7838 16.0456 54.1664 17.6589L54.8201 17.9091C55.36 16.4984 56.2397 16.062 56.8639 16.062V15.362ZM54.1433 17.784V24H54.8433V17.784H54.1433ZM54.4933 23.65H51.7493V24.35H54.4933V23.65Z" fill="#FF607C" mask="url(#path-1-outside-1_722_1891)"/>
<mask id="path-3-outside-2_722_1891" maskUnits="userSpaceOnUse" x="0" y="30" width="58" height="46" fill="black">
<rect fill="white" y="30" width="58" height="46"/>
<path d="M11.2539 55.2297V49.9603H13.3047C15.3365 49.9603 16.9125 49.4001 18.0329 48.2798C19.1532 47.1974 19.7134 45.7923 19.7134 44.0643C19.6754 42.3173 19.0962 40.8837 17.9759 39.7633C16.8556 38.681 15.4124 38.1208 13.6465 38.0828C12.3742 38.0828 11.2159 38.4911 10.1715 39.3076C9.0702 40.1241 8.32964 41.3869 7.94987 43.0959H1.99691C2.30073 40.0197 3.54449 37.4277 5.72819 35.32C7.87392 33.2312 10.4374 32.1679 13.4186 32.1299C17.1974 32.1679 20.1976 33.3736 22.4193 35.7472C24.546 38.0639 25.6284 40.7982 25.6663 43.9504C25.6663 45.5454 25.3815 47.0835 24.8118 48.5646C24.1472 50.0457 22.9605 51.3655 21.2515 52.5238C22.9984 53.6631 24.2612 55.0303 25.0397 56.6253C25.7803 58.2204 26.1506 59.8914 26.1506 61.6383C26.1126 65.531 24.9068 68.5977 22.5332 70.8384C20.1976 73.136 17.1974 74.3038 13.5326 74.3418C10.7032 74.3418 8.19672 73.4303 6.01302 71.6074C3.82932 69.7845 2.41466 67.1451 1.76904 63.6891H7.72201C8.25369 65.0753 9.00374 66.1956 9.97217 67.0501C10.9596 67.9426 12.2698 68.3888 13.9028 68.3888C15.6498 68.3888 17.1214 67.7907 18.3177 66.5944C19.533 65.4741 20.1596 63.879 20.1976 61.8092C20.1596 59.7015 19.533 58.0685 18.3177 56.9102C17.1214 55.7898 15.6023 55.2297 13.7604 55.2297H11.2539ZM50.6016 62.0371V44.4346C50.4876 40.276 48.5413 38.1588 44.7625 38.0828C40.9648 38.1588 39.0279 40.276 38.952 44.4346V62.0371C39.0279 66.2336 40.9648 68.3509 44.7625 68.3888C48.5413 68.3509 50.4876 66.2336 50.6016 62.0371ZM32.999 62.3789V44.0643C33.037 40.2286 34.2618 37.2758 36.6733 35.2061C38.933 33.1553 41.6294 32.1299 44.7625 32.1299C47.9906 32.1299 50.7345 33.1553 52.9941 35.2061C55.2918 37.2758 56.4786 40.2286 56.5545 44.0643V62.3789C56.4786 66.1956 55.2918 69.1389 52.9941 71.2087C50.7345 73.2594 47.9906 74.3038 44.7625 74.3418C41.6294 74.3038 38.933 73.2594 36.6733 71.2087C34.2618 69.1389 33.037 66.1956 32.999 62.3789Z"/>
</mask>
<path d="M11.2539 55.2297V49.9603H13.3047C15.3365 49.9603 16.9125 49.4001 18.0329 48.2798C19.1532 47.1974 19.7134 45.7923 19.7134 44.0643C19.6754 42.3173 19.0962 40.8837 17.9759 39.7633C16.8556 38.681 15.4124 38.1208 13.6465 38.0828C12.3742 38.0828 11.2159 38.4911 10.1715 39.3076C9.0702 40.1241 8.32964 41.3869 7.94987 43.0959H1.99691C2.30073 40.0197 3.54449 37.4277 5.72819 35.32C7.87392 33.2312 10.4374 32.1679 13.4186 32.1299C17.1974 32.1679 20.1976 33.3736 22.4193 35.7472C24.546 38.0639 25.6284 40.7982 25.6663 43.9504C25.6663 45.5454 25.3815 47.0835 24.8118 48.5646C24.1472 50.0457 22.9605 51.3655 21.2515 52.5238C22.9984 53.6631 24.2612 55.0303 25.0397 56.6253C25.7803 58.2204 26.1506 59.8914 26.1506 61.6383C26.1126 65.531 24.9068 68.5977 22.5332 70.8384C20.1976 73.136 17.1974 74.3038 13.5326 74.3418C10.7032 74.3418 8.19672 73.4303 6.01302 71.6074C3.82932 69.7845 2.41466 67.1451 1.76904 63.6891H7.72201C8.25369 65.0753 9.00374 66.1956 9.97217 67.0501C10.9596 67.9426 12.2698 68.3888 13.9028 68.3888C15.6498 68.3888 17.1214 67.7907 18.3177 66.5944C19.533 65.4741 20.1596 63.879 20.1976 61.8092C20.1596 59.7015 19.533 58.0685 18.3177 56.9102C17.1214 55.7898 15.6023 55.2297 13.7604 55.2297H11.2539ZM50.6016 62.0371V44.4346C50.4876 40.276 48.5413 38.1588 44.7625 38.0828C40.9648 38.1588 39.0279 40.276 38.952 44.4346V62.0371C39.0279 66.2336 40.9648 68.3509 44.7625 68.3888C48.5413 68.3509 50.4876 66.2336 50.6016 62.0371ZM32.999 62.3789V44.0643C33.037 40.2286 34.2618 37.2758 36.6733 35.2061C38.933 33.1553 41.6294 32.1299 44.7625 32.1299C47.9906 32.1299 50.7345 33.1553 52.9941 35.2061C55.2918 37.2758 56.4786 40.2286 56.5545 44.0643V62.3789C56.4786 66.1956 55.2918 69.1389 52.9941 71.2087C50.7345 73.2594 47.9906 74.3038 44.7625 74.3418C41.6294 74.3038 38.933 73.2594 36.6733 71.2087C34.2618 69.1389 33.037 66.1956 32.999 62.3789Z" fill="#FF607C"/>
<path d="M11.2539 55.2297H10.0872C10.0872 55.874 10.6096 56.3963 11.2539 56.3963V55.2297ZM11.2539 49.9603V48.7936C10.6096 48.7936 10.0872 49.316 10.0872 49.9603H11.2539ZM18.0329 48.2798L17.2223 47.4407C17.2174 47.4454 17.2127 47.4501 17.2079 47.4548L18.0329 48.2798ZM19.7134 44.0643H20.88C20.88 44.0558 20.88 44.0474 20.8798 44.0389L19.7134 44.0643ZM17.9759 39.7633L18.8009 38.9384C18.7961 38.9336 18.7913 38.9289 18.7865 38.9243L17.9759 39.7633ZM13.6465 38.0828L13.6716 36.9164C13.6632 36.9163 13.6548 36.9162 13.6465 36.9162V38.0828ZM10.1715 39.3076L10.8664 40.2448C10.8744 40.2389 10.8823 40.2329 10.8901 40.2267L10.1715 39.3076ZM7.94987 43.0959V44.2625C8.49669 44.2625 8.97013 43.8827 9.08875 43.3489L7.94987 43.0959ZM1.99691 43.0959L0.83589 42.9812C0.803517 43.309 0.911201 43.6352 1.13236 43.8792C1.35352 44.1233 1.66754 44.2625 1.99691 44.2625V43.0959ZM5.72819 35.32L6.53843 36.1594L6.54198 36.156L5.72819 35.32ZM13.4186 32.1299L13.4303 30.9633C13.4215 30.9632 13.4126 30.9632 13.4038 30.9633L13.4186 32.1299ZM22.4193 35.7472L23.2787 34.9582L23.271 34.95L22.4193 35.7472ZM25.6663 43.9504H26.8331L26.8329 43.9363L25.6663 43.9504ZM24.8118 48.5646L25.8763 49.0422C25.885 49.0229 25.8931 49.0032 25.9008 48.9834L24.8118 48.5646ZM21.2515 52.5238L20.5969 51.558C20.2736 51.7772 20.0814 52.1435 20.0848 52.5341C20.0883 52.9247 20.287 53.2876 20.6142 53.501L21.2515 52.5238ZM25.0397 56.6253L26.0979 56.134C26.0947 56.1272 26.0915 56.1204 26.0882 56.1136L25.0397 56.6253ZM26.1506 61.6383L27.3172 61.6497V61.6383H26.1506ZM22.5332 70.8384L21.7323 69.99C21.7265 69.9955 21.7207 70.0011 21.715 70.0067L22.5332 70.8384ZM13.5326 74.3418V75.5085L13.5446 75.5084L13.5326 74.3418ZM1.76904 63.6891V62.5225C1.42211 62.5225 1.09318 62.6769 0.87153 62.9438C0.649879 63.2106 0.558507 63.5623 0.622216 63.9034L1.76904 63.6891ZM7.72201 63.6891L8.81129 63.2713C8.63828 62.8202 8.20513 62.5225 7.72201 62.5225V63.6891ZM9.97217 67.0501L10.7545 66.1845L10.7441 66.1753L9.97217 67.0501ZM18.3177 66.5944L17.5269 65.7366C17.5153 65.7473 17.5039 65.7583 17.4928 65.7694L18.3177 66.5944ZM20.1976 61.8092L21.3641 61.8306C21.3643 61.8165 21.3643 61.8024 21.3641 61.7882L20.1976 61.8092ZM18.3177 56.9102L19.1227 56.0656L19.1152 56.0586L18.3177 56.9102ZM12.4206 55.2297V49.9603H10.0872V55.2297H12.4206ZM11.2539 51.127H13.3047V48.7936H11.2539V51.127ZM13.3047 51.127C15.5544 51.127 17.4615 50.501 18.8578 49.1047L17.2079 47.4548C16.3635 48.2992 15.1186 48.7936 13.3047 48.7936V51.127ZM18.8435 49.1188C20.2174 47.7915 20.88 46.0706 20.88 44.0643H18.5467C18.5467 45.514 18.089 46.6033 17.2223 47.4407L18.8435 49.1188ZM20.8798 44.0389C20.836 42.0251 20.1565 40.294 18.8009 38.9384L17.151 40.5883C18.036 41.4733 18.5148 42.6095 18.547 44.0896L20.8798 44.0389ZM18.7865 38.9243C17.4263 37.6102 15.6889 36.9598 13.6716 36.9164L13.6214 39.2492C15.136 39.2818 16.2848 39.7518 17.1653 40.6024L18.7865 38.9243ZM13.6465 36.9162C12.1023 36.9162 10.6933 37.4188 9.45297 38.3885L10.8901 40.2267C11.7386 39.5634 12.6462 39.2495 13.6465 39.2495V36.9162ZM9.47673 38.3704C8.0931 39.3962 7.23434 40.9377 6.81099 42.8428L9.08875 43.3489C9.42495 41.8361 10.0473 40.852 10.8664 40.2448L9.47673 38.3704ZM7.94987 41.9292H1.99691V44.2625H7.94987V41.9292ZM3.15793 43.2105C3.43508 40.4043 4.55795 38.071 6.53842 36.1594L4.91796 34.4806C2.53103 36.7845 1.16637 39.635 0.83589 42.9812L3.15793 43.2105ZM6.54198 36.156C8.47461 34.2746 10.7525 33.3306 13.4335 33.2965L13.4038 30.9633C10.1223 31.0051 7.27322 32.1878 4.9144 34.484L6.54198 36.156ZM13.4069 33.2965C16.9233 33.3318 19.5994 34.4418 21.5675 36.5445L23.271 34.95C20.7958 32.3055 17.4715 31.0039 13.4303 30.9633L13.4069 33.2965ZM21.5598 36.5362C23.4917 38.6406 24.4652 41.0988 24.4998 43.9644L26.8329 43.9363C26.7915 40.4976 25.6003 37.4871 23.2787 34.9582L21.5598 36.5362ZM24.4997 43.9504C24.4997 45.403 24.2409 46.799 23.7229 48.1458L25.9008 48.9834C26.5221 47.368 26.833 45.6878 26.833 43.9504H24.4997ZM23.7474 48.087C23.1926 49.3234 22.1748 50.4886 20.5969 51.558L21.906 53.4895C23.7461 52.2423 25.1019 50.768 25.8763 49.0422L23.7474 48.087ZM20.6142 53.501C22.2158 54.5455 23.3203 55.7624 23.9913 57.1371L26.0882 56.1136C25.2021 54.2982 23.7811 52.7807 21.8888 51.5465L20.6142 53.501ZM23.9815 57.1166C24.6511 58.5588 24.9839 60.0623 24.9839 61.6383H27.3172C27.3172 59.7205 26.9094 57.8819 26.0979 56.134L23.9815 57.1166ZM24.9839 61.627C24.9484 65.2684 23.8314 68.0085 21.7323 69.99L23.3341 71.6867C25.9822 69.187 27.2767 65.7936 27.3172 61.6497L24.9839 61.627ZM21.715 70.0067C19.6209 72.0668 16.9223 73.1399 13.5205 73.1752L13.5446 75.5084C17.4724 75.4677 20.7743 74.2053 23.3514 71.6701L21.715 70.0067ZM13.5326 73.1751C10.9781 73.1751 8.73583 72.3606 6.76067 70.7118L5.26537 72.503C7.65762 74.5 10.4284 75.5085 13.5326 75.5085V73.1751ZM6.76067 70.7118C4.83078 69.1008 3.5238 66.7291 2.91587 63.4749L0.622216 63.9034C1.30552 67.5611 2.82786 70.4682 5.26537 72.503L6.76067 70.7118ZM1.76904 64.8558H7.72201V62.5225H1.76904V64.8558ZM6.63272 64.1069C7.22166 65.6424 8.07094 66.9285 9.20028 67.9249L10.7441 66.1753C9.93654 65.4628 9.28572 64.5082 8.81129 63.2713L6.63272 64.1069ZM9.18987 67.9156C10.4377 69.0435 12.0494 69.5555 13.9028 69.5555V67.2222C12.4902 67.2222 11.4814 66.8417 10.7545 66.1846L9.18987 67.9156ZM13.9028 69.5555C15.9479 69.5555 17.7197 68.8423 19.1427 67.4194L17.4928 65.7694C16.5231 66.7391 15.3517 67.2222 13.9028 67.2222V69.5555ZM19.1085 67.4522C20.614 66.0642 21.3218 64.1334 21.3641 61.8306L19.0311 61.7878C18.9974 63.6247 18.4519 64.8839 17.5269 65.7366L19.1085 67.4522ZM21.3641 61.7882C21.322 59.4529 20.6181 57.491 19.1226 56.0656L17.5128 57.7547C18.4479 58.6459 18.9972 59.9501 19.0311 61.8303L21.3641 61.7882ZM19.1152 56.0586C17.6754 54.7102 15.8589 54.063 13.7604 54.063V56.3963C15.3458 56.3963 16.5674 56.8694 17.5202 57.7617L19.1152 56.0586ZM13.7604 54.063H11.2539V56.3963H13.7604V54.063ZM50.6016 62.0371L51.7678 62.0688C51.7681 62.0582 51.7682 62.0477 51.7682 62.0371H50.6016ZM50.6016 44.4346H51.7682C51.7682 44.4239 51.7681 44.4133 51.7678 44.4026L50.6016 44.4346ZM44.7625 38.0828L44.786 36.9164C44.7704 36.9161 44.7548 36.9161 44.7392 36.9164L44.7625 38.0828ZM38.952 44.4346L37.7855 44.4133C37.7854 44.4204 37.7853 44.4275 37.7853 44.4346H38.952ZM38.952 62.0371H37.7853C37.7853 62.0441 37.7854 62.0512 37.7855 62.0582L38.952 62.0371ZM44.7625 68.3888L44.7509 69.5554C44.7587 69.5555 44.7665 69.5555 44.7743 69.5554L44.7625 68.3888ZM32.999 62.3789H31.8323L31.8324 62.3905L32.999 62.3789ZM32.999 44.0643L31.8324 44.0527V44.0643H32.999ZM36.6733 35.2061L37.4332 36.0914C37.4413 36.0843 37.4494 36.0772 37.4574 36.07L36.6733 35.2061ZM52.9941 35.2061L52.2101 36.07L52.2133 36.0729L52.9941 35.2061ZM56.5545 44.0643H57.7212C57.7212 44.0566 57.7211 44.0489 57.721 44.0412L56.5545 44.0643ZM56.5545 62.3789L57.721 62.4021C57.7211 62.3944 57.7212 62.3866 57.7212 62.3789H56.5545ZM52.9941 71.2087L52.2133 70.3418L52.2101 70.3447L52.9941 71.2087ZM44.7625 74.3418L44.7484 75.5084C44.7577 75.5085 44.767 75.5085 44.7763 75.5084L44.7625 74.3418ZM36.6733 71.2087L37.4574 70.3447C37.4494 70.3375 37.4413 70.3304 37.4332 70.3234L36.6733 71.2087ZM51.7682 62.0371V44.4346H49.4349V62.0371H51.7682ZM51.7678 44.4026C51.7065 42.1654 51.1485 40.2797 49.9153 38.9382C48.6649 37.578 46.889 36.9587 44.786 36.9164L44.7391 39.2493C46.4148 39.283 47.5015 39.7602 48.1975 40.5173C48.9106 41.293 49.3827 42.5452 49.4353 44.4665L51.7678 44.4026ZM44.7392 36.9164C42.629 36.9586 40.8481 37.5768 39.6008 38.9403C38.37 40.2856 37.8264 42.1755 37.7855 44.4133L40.1185 44.4559C40.1535 42.5351 40.6163 41.2871 41.3224 40.5152C42.0119 39.7615 43.0984 39.283 44.7859 39.2493L44.7392 36.9164ZM37.7853 44.4346V62.0371H40.1187V44.4346H37.7853ZM37.7855 62.0582C37.8263 64.3118 38.3685 66.2128 39.6008 67.5599C40.8518 68.9274 42.6382 69.5343 44.7509 69.5554L44.7742 67.2222C43.0891 67.2054 42.0082 66.7346 41.3224 65.9849C40.6179 65.2148 40.1536 63.9589 40.1185 62.016L37.7855 62.0582ZM44.7743 69.5554C46.8798 69.5343 48.6612 68.9262 49.9153 67.562C51.1501 66.2187 51.7066 64.3218 51.7678 62.0688L49.4353 62.0054C49.3826 63.9489 48.909 65.2089 48.1975 65.9829C47.5052 66.7359 46.424 67.2054 44.7508 67.2222L44.7743 69.5554ZM34.1657 62.3789V44.0643H31.8324V62.3789H34.1657ZM34.1656 44.0758C34.201 40.5004 35.3293 37.897 37.4332 36.0914L35.9135 34.3207C33.1942 36.6546 31.873 39.9568 31.8324 44.0527L34.1656 44.0758ZM37.4574 36.07C39.4961 34.2197 41.9107 33.2965 44.7625 33.2965V30.9632C41.3481 30.9632 38.3699 32.0909 35.8893 34.3421L37.4574 36.07ZM44.7625 33.2965C47.7191 33.2965 50.1783 34.226 52.2101 36.07L53.7782 34.3421C51.2907 32.0845 48.2621 30.9632 44.7625 30.9632V33.2965ZM52.2133 36.0729C54.2159 37.8769 55.3169 40.4911 55.3881 44.0874L57.721 44.0412C57.6403 39.966 56.3677 36.6748 53.775 34.3392L52.2133 36.0729ZM55.3879 44.0643V62.3789H57.7212V44.0643H55.3879ZM55.3881 62.3557C55.3169 65.931 54.2171 68.5367 52.2133 70.3418L53.775 72.0755C56.3664 69.7411 57.6402 66.4603 57.721 62.4021L55.3881 62.3557ZM52.2101 70.3447C50.1746 72.1921 47.7098 73.1404 44.7488 73.1752L44.7763 75.5084C48.2715 75.4673 51.2944 74.3268 53.7782 72.0726L52.2101 70.3447ZM44.7767 73.1752C41.9201 73.1406 39.4999 72.1984 37.4574 70.3447L35.8893 72.0726C38.3661 74.3205 41.3387 75.467 44.7484 75.5084L44.7767 73.1752ZM37.4332 70.3234C35.328 68.5165 34.201 65.9217 34.1656 62.3673L31.8324 62.3905C31.873 66.4696 33.1956 69.7612 35.9135 72.094L37.4332 70.3234Z" fill="#FF607C" mask="url(#path-3-outside-2_722_1891)"/>
</svg>
