<svg width="104" height="85" viewBox="0 0 104 70" fill="none" xmlns="http://www.w3.org/2000/svg">
<path d="M23.9173 55.1622C23.3016 53.9834 22.971 52.6998 22.971 51.3072C22.971 49.7985 23.6097 48.1869 25.0641 47.0173C26.47 45.8866 28.3553 45.3884 30.5159 45.3884H47.7494C59.4866 45.3884 68.9893 35.8939 68.9893 24.1924C68.9893 12.4948 59.4869 3 47.7494 3H24.2399C12.5046 3 3.00001 12.495 3.00001 24.1924C3.00001 32.3375 6.02125 40.3168 10.8116 46.2287C14.4695 50.7428 19.0301 53.9111 23.9173 55.1622Z" stroke="#FF607C" stroke-width="6"/>
<path d="M79.6852 14.0508H56.1029C42.6725 14.0508 31.7881 22.0767 31.7881 35.4364C31.7881 48.7999 42.6725 59.6325 56.1029 59.6325H73.3898C76.8651 59.6325 77.9487 61.2375 77.9487 62.5513C77.9487 64.4948 76.9348 66.3166 74.4783 68.0592C72.9561 69.1375 74.152 70.0001 75.3453 70.0001C90.8662 70.0001 104 53.1515 104 35.4364C104 22.0767 93.1132 14.0508 79.6852 14.0508Z" fill="#FF607C"/>
<path d="M56.5942 40.2203V42.4866H52.0479V40.2203H53.0711L54.8456 34.5094H53.4921V32.243H59.9101L62.2091 40.2203H63.2259V42.4866H57.4296V40.2203H58.2716L57.9931 39.1257H55.6551L55.3637 40.2203H56.5942ZM57.6822 37.5676L56.931 34.4321L55.9854 37.5676H57.6822Z" fill="white"/>
<path d="M70.3845 42.4866H64.5753V40.2203H65.8252V34.5094H64.7502V32.2302H70.0154C70.8703 32.2302 71.5999 32.2988 72.2044 32.4362C72.7959 32.5778 73.2665 32.8483 73.6162 33.2474C73.9659 33.6423 74.1408 34.2025 74.1408 34.9279C74.1408 35.4387 73.9918 35.8829 73.6939 36.2606C73.396 36.6383 73.0182 36.9109 72.5606 37.0783C73.1607 37.3358 73.6032 37.6685 73.8882 38.0763C74.1775 38.484 74.3221 39.0442 74.3221 39.7567C74.3221 40.628 73.9789 41.3019 73.2924 41.7783C72.6102 42.2505 71.6409 42.4866 70.3845 42.4866ZM69.1411 34.5094V36.3701H69.4973C69.9895 36.3701 70.3521 36.3014 70.5853 36.164C70.8228 36.0267 70.9415 35.7692 70.9415 35.3914C70.9415 35.1296 70.8595 34.9171 70.6954 34.754C70.5313 34.5909 70.3176 34.5094 70.0542 34.5094H69.1411ZM69.1411 38.0569V40.2203H69.3742C69.8967 40.2203 70.2982 40.1473 70.5788 40.0013C70.8638 39.8554 71.0063 39.5549 71.0063 39.1C71.0063 38.396 70.5745 38.0441 69.711 38.0441C69.616 38.0441 69.521 38.0462 69.426 38.0505C69.3311 38.0505 69.2361 38.0526 69.1411 38.0569Z" fill="white"/>
<path d="M81.6362 42.6733C80.6777 42.6733 79.8055 42.4716 79.0197 42.0681C78.2253 41.6689 77.5906 41.068 77.1157 40.2653C76.6451 39.4627 76.4098 38.4754 76.4098 37.3036C76.4098 36.325 76.589 35.4344 76.9473 34.6317C77.3057 33.8376 77.8303 33.2088 78.5211 32.7452C79.2162 32.2774 80.0559 32.0435 81.0403 32.0435C81.5412 32.0435 81.9902 32.1615 82.3874 32.3976C82.7889 32.6294 83.0782 32.9234 83.2552 33.2796L83.5208 32.243H85.5349V36.4473H83.4689V36.2349C83.4689 35.6897 83.3416 35.2434 83.0868 34.8957C82.8364 34.548 82.463 34.3742 81.9664 34.3742C81.634 34.3742 81.3275 34.5008 81.0468 34.754C80.7705 35.0116 80.5525 35.3485 80.3927 35.7649C80.233 36.1769 80.1531 36.6019 80.1531 37.0397C80.1531 37.9024 80.369 38.5785 80.8007 39.0678C81.2325 39.5528 81.824 39.7953 82.5752 39.7953C83.1063 39.7953 83.5985 39.7073 84.0518 39.5313C84.5095 39.3554 84.8851 39.1665 85.1787 38.9648L85.3212 39.0871V41.8299C84.7728 42.1432 84.1943 42.3621 83.5855 42.4866C82.9767 42.6111 82.327 42.6733 81.6362 42.6733Z" fill="white"/>
</svg>
