<svg width="369" height="250" viewBox="0 0 369 250" fill="none" xmlns="http://www.w3.org/2000/svg">
<path d="M207.757 0.360153C189.634 2.09288 173.212 9.5089 161.755 21.1181L159.151 23.7865L156.061 22.435C145.958 17.9992 136.757 15.9893 125.161 15.6774C117.384 15.4694 111.829 15.9893 104.851 17.514C75.1661 24.133 54.0224 46.2425 53.7794 70.8817L53.7447 74.3818L50.3769 75.1788C36.7672 78.4363 25.4489 84.3622 16.5261 92.8525C5.555 103.283 0 115.586 0 129.344C0 134.958 0.590219 138.908 2.15256 143.794C5.76332 155.092 14.1653 165.731 25.5183 173.285C31.8024 177.478 41.5237 181.672 49.4743 183.612L52.5989 184.375V189.642C52.6337 193.177 52.842 195.914 53.2239 197.959C58.1192 222.564 81.0683 241.242 111.447 245.366C115.683 245.955 128.078 245.955 132.105 245.401C144.43 243.668 155.575 239.787 164.22 234.207C165.366 233.48 166.442 232.856 166.615 232.856C166.754 232.856 167.796 233.584 168.942 234.45C183.072 245.47 202.098 251.049 221.193 249.837C232.651 249.109 241.92 246.718 251.538 242.039C263.307 236.321 272.785 227.796 278.896 217.435C279.799 215.91 279.937 215.806 280.979 216.014C294.554 218.856 305.109 218.96 317.26 216.395C343.334 210.92 363.54 192.9 368.054 171.067C371.352 155.092 365.901 138.111 353.68 126.155L351.389 123.937L352.048 123.002C353.507 120.957 356.631 113.957 357.638 110.526C359.062 105.605 359.409 102.868 359.409 97.3576C359.374 74.4511 342.119 53.8664 315.767 45.2722C307.331 42.4998 300.005 41.4255 290.041 41.3909H282.368L281.569 39.3116C278.271 30.5787 271.084 21.4646 262.3 14.811C247.961 3.99886 227.096 -1.51117 207.757 0.360153Z" fill="#FFF8EE"/>
</svg>
