<svg width="289" height="165" viewBox="0 0 289 165" fill="none" xmlns="http://www.w3.org/2000/svg">
    <path d="M200.364 98.848H215.124V89.992H200.364V98.848ZM209.292 75.88H198.564C197.772 76.78 196.944 77.68 196.008 78.508C198.42 80.2 201.156 82.504 202.812 84.304C205.476 81.856 207.744 79.012 209.292 75.88ZM217.824 87.544V102.808H215.124V101.296H200.364V102.736H197.736V91.36C194.856 93.052 191.868 94.42 188.88 95.392C188.556 94.672 187.872 93.556 187.296 93.052C191.868 91.72 196.584 89.344 200.652 86.14C199.068 84.304 196.44 82 194.064 80.236C192.624 81.388 191.076 82.504 189.348 83.512C188.988 82.9 188.088 81.928 187.476 81.46C193.38 78.256 197.484 73.648 199.572 69.76L202.56 70.372C201.948 71.38 201.264 72.424 200.508 73.468H210.66L211.164 73.324L212.928 74.26C210.804 79.588 207.276 84.016 203.1 87.544H217.824Z" fill="#333333"/>
    <path d="M130.24 132.936L127.72 134.304C126.748 131.82 124.444 128.148 122.176 125.52L124.552 124.332C126.928 126.96 129.232 130.488 130.24 132.936ZM125.128 139.92L125.74 142.476C120.772 144.744 115.336 147.12 111.376 148.848L110.404 146.076C111.808 145.536 113.5 144.852 115.372 144.06L114.76 121.812L117.496 121.704L118.036 142.944C120.34 141.972 122.752 140.928 125.128 139.92ZM143.812 150.576L141.58 152.628C139.924 150.144 136.576 146.364 133.516 143.124C130.708 147.372 126.784 150.504 121.168 152.844C120.808 152.304 119.692 151.08 119.044 150.54C131.392 146.004 135.208 137.292 136.792 121.74L139.708 122.028C138.844 129.732 137.476 135.852 134.956 140.676C138.16 143.916 141.976 147.912 143.812 150.576Z" fill="#333333"/>
    <path d="M163.216 148.38H179.056V151.044H146.98V148.38H160.408V120.444H163.216V131.46H176.608V134.124H163.216V148.38Z" fill="#333333"/>
    <path d="M71.7552 102V94.265H82.1552V63.845H73.3802V57.93C78.2552 57.02 81.5052 55.785 84.6252 53.9H91.7102V94.265H100.745V102H71.7552Z" fill="#333333"/>
    <path d="M124.005 102.91C114.19 102.91 107.69 94.395 107.69 77.755C107.69 61.18 114.19 53.055 124.005 53.055C133.755 53.055 140.255 61.18 140.255 77.755C140.255 94.395 133.755 102.91 124.005 102.91ZM124.005 95.435C128.165 95.435 131.22 91.275 131.22 77.755C131.22 64.3 128.165 60.4 124.005 60.4C119.845 60.4 116.725 64.3 116.725 77.755C116.725 91.275 119.845 95.435 124.005 95.435Z" fill="#333333"/>
    <path d="M162.345 102.91C152.53 102.91 146.03 94.395 146.03 77.755C146.03 61.18 152.53 53.055 162.345 53.055C172.095 53.055 178.595 61.18 178.595 77.755C178.595 94.395 172.095 102.91 162.345 102.91ZM162.345 95.435C166.505 95.435 169.56 91.275 169.56 77.755C169.56 64.3 166.505 60.4 162.345 60.4C158.185 60.4 155.065 64.3 155.065 77.755C155.065 91.275 158.185 95.435 162.345 95.435Z" fill="#333333"/>
    <path d="M60.5855 145.738C55.0199 142.37 46.9712 133.214 35.626 139.619C28.3908 143.176 25.6508 139.903 28.6048 145.548C31.5589 151.194 37.7666 159.875 48.855 156.033C59.9433 152.19 61.827 147.731 64.1817 148.015C66.4936 148.3 60.5855 145.738 60.5855 145.738Z" fill="#FFB362"/>
    <path d="M44.1035 131.411C41.7916 128.091 33.3148 118.698 24.7952 120.643C16.2756 122.588 14.7772 121.781 16.8322 125.861C18.8872 129.941 24.624 141.137 36.8254 137.531C49.0269 134.021 44.1035 131.411 44.1035 131.411Z" fill="#FFB362"/>
    <path d="M32.0302 115.234C27.278 112.103 25.0946 101.761 18.2875 100.149C11.4804 98.5356 8.09821 97.4445 8.0554 100.054C8.01259 102.663 9.85351 117.179 25.3515 118.745C31.3452 119.124 34.4705 116.847 32.0302 115.234Z" fill="#FFB362"/>
    <path d="M67.3931 147.493C64.8671 138.575 73.9861 128.518 67.3074 116.61C63.5828 110.348 61.8275 106.696 59.5584 109.162C57.2894 111.629 51.6382 120.121 53.0938 127.901C54.5494 135.728 60.4575 145.074 65.2524 146.829C70.0046 148.679 67.3931 147.493 67.3931 147.493Z" fill="#FFB362"/>
    <path d="M49.4552 128.28C51.5102 124.343 55.4061 112.768 48.2137 101.05C44.7887 97.4447 37.8531 106.174 38.3669 113.716C38.8806 121.259 49.284 134.779 48.813 133.119C47.914 129.893 49.4552 128.28 49.4552 128.28Z" fill="#FFB362"/>
    <path d="M32.4156 112.388C32.1587 111.582 26.2935 103.042 26.9785 96.5907C27.6634 90.0915 32.8865 85.5374 34.2565 83.7347C36.1831 83.5924 41.9627 92.7481 39.3512 101.856C36.6968 111.012 33.4859 115.709 32.4156 112.388Z" fill="#FFB362"/>
    <path d="M18.2024 94.1714C15.2484 88.7633 14.649 78.2318 9.3403 75.6701C4.03159 73.1558 1.63411 71.0211 1.5913 75.0534C1.50568 79.1332 1.03474 90.4712 9.63998 94.5035C18.2024 98.4884 19.5724 96.6857 18.2024 94.1714Z" fill="#FFB362"/>
    <path d="M23.7246 94.7408C26.3362 92.4638 33.6142 86.439 31.0027 75.0536C30.1893 71.6854 29.7183 70.3096 27.8346 71.3533C25.9509 72.4444 20.2997 76.3819 19.7859 82.6438C19.1865 90.1867 22.4831 92.8907 22.1834 95.0255C21.9693 96.4961 22.5259 96.7807 22.7828 96.4961C23.4677 95.7371 23.7246 94.7408 23.7246 94.7408Z" fill="#FFB362"/>
    <path d="M17.6884 76.3345C20.8993 75.0537 27.1071 69.1238 26.7646 62.1502C26.4221 55.1292 26.208 56.1729 23.7249 57.1691C21.2418 58.1653 15.6334 60.727 15.5478 67.2736C15.4622 73.8203 16.8322 74.6267 16.4041 76.2397C15.7191 78.8488 16.3612 79.0386 16.8322 77.9475C17.3031 76.8089 17.6884 76.3345 17.6884 76.3345Z" fill="#FFB362"/>
    <path d="M8.69764 70.9261C5.14423 69.3131 3.00362 66.7514 1.11989 61.7229C-0.763844 56.7417 -0.121661 47.6334 1.93332 48.2976C3.94549 48.9617 8.52639 50.1477 10.0248 55.6032C11.5232 61.1062 10.8811 69.5503 11.4376 70.9261C11.9514 72.3018 13.4498 71.5902 11.9514 72.3018C10.3673 73.1083 8.69764 70.9261 8.69764 70.9261Z" fill="#FFB362"/>
    <path d="M13.921 57.5012C12.9792 51.9508 15.7191 45.1196 22.5691 42.8425C27.2356 41.3244 26.5506 42.036 26.3794 44.0759C26.2081 46.1158 25.1806 52.3303 21.9697 54.7023C18.7588 57.0743 16.4041 58.45 15.5051 59.209C14.5632 59.9206 13.921 57.5012 13.921 57.5012Z" fill="#FFB362"/>
    <path d="M8.44049 48.1553C5.52926 45.4987 2.10429 40.8497 3.98803 33.6864C6.55675 28.8001 6.68519 27.0923 7.62706 28.5629C8.52611 30.0335 13.5351 33.544 13.1926 39.5214C12.8501 45.4987 10.6239 51.8556 10.6239 51.8556L8.44049 48.1553Z" fill="#FFB362"/>
    <path d="M15.8047 41.9409C20.3 41.2767 27.0643 40.328 28.263 31.1247C28.6911 30.0811 28.4343 29.322 26.4221 29.5592C24.4099 29.7964 20.3428 29.3695 18.1594 33.1646C15.9759 36.9598 15.8047 41.9409 15.8047 41.9409Z" fill="#FFB362"/>
    <path d="M13.4927 29.891C12.6365 28.373 7.7987 22.5854 12.2084 16.3708C13.2358 12.3385 14.6058 12.6231 16.1043 15.2797C17.6027 17.9363 18.0308 25.2894 16.2327 29.0371C14.4774 32.7848 14.8199 32.263 13.4927 29.891Z" fill="#FFB362"/>
    <path d="M20.7275 24.4359C26.8069 25.8116 29.3328 23.7243 31.7731 20.8779C34.2134 18.0316 35.1552 17.6521 35.0696 16.3238C34.984 14.9955 30.1462 14.6159 26.8497 15.4224C23.5531 16.2289 20.9844 21.21 20.7275 24.4359Z" fill="#FFB362"/>
    <path d="M24.581 12.7657C30.275 12.2913 37.0822 8.4962 38.1525 2.0919C39.0943 -0.0903046 39.0943 -0.0903048 35.4553 0.052013C31.7735 0.146891 25.7369 2.85093 24.581 12.7657Z" fill="#FFB362"/>
    <path d="M21.07 15.3748C22.6541 12.1489 25.1372 7.45243 21.541 1.52253C19.3575 2.04436 13.7063 9.1128 18.5869 14.853C20.0425 17.2724 21.07 15.3748 21.07 15.3748Z" fill="#FFB362"/>
    <path d="M27.0215 7.31043C18.3306 20.119 5.23012 46.9222 11.7804 77.1884C15.2482 93.2703 25.095 111.44 37.6389 125.529C47.2288 136.25 58.6597 143.603 68.6349 151.336C71.6745 153.708 78.2676 159.353 81.821 163.243C83.8332 165.425 86.4019 162.627 84.561 160.776C76.2983 152.19 72.4452 151.194 68.4208 147.493C63.369 142.702 -19.0872 96.4013 26.2081 10.5363C33.4005 5.12822 27.0215 7.31043 27.0215 7.31043Z" fill="#FFB362"/>
    <path d="M228.415 145.738C233.981 142.37 242.029 133.214 253.374 139.619C260.61 143.176 263.35 139.903 260.396 145.548C257.442 151.194 251.234 159.875 240.145 156.033C229.057 152.19 227.173 147.731 224.819 148.015C222.507 148.3 228.415 145.738 228.415 145.738Z" fill="#FFB362"/>
    <path d="M244.897 131.411C247.209 128.091 255.686 118.698 264.205 120.643C272.725 122.588 274.223 121.781 272.168 125.861C270.113 129.941 264.377 141.137 252.175 137.531C239.974 134.021 244.897 131.411 244.897 131.411Z" fill="#FFB362"/>
    <path d="M256.97 115.234C261.722 112.103 263.906 101.761 270.713 100.149C277.52 98.5356 280.902 97.4445 280.945 100.054C280.988 102.663 279.147 117.179 263.649 118.745C257.655 119.124 254.53 116.847 256.97 115.234Z" fill="#FFB362"/>
    <path d="M221.608 147.493C224.134 138.575 215.015 128.518 221.693 116.61C225.418 110.348 227.173 106.696 229.442 109.162C231.711 111.629 237.362 120.121 235.907 127.901C234.451 135.728 228.543 145.074 223.748 146.829C218.996 148.679 221.608 147.493 221.608 147.493Z" fill="#FFB362"/>
    <path d="M239.545 128.28C237.49 124.343 233.594 112.768 240.787 101.05C244.212 97.4447 251.147 106.174 250.633 113.716C250.12 121.259 239.716 134.779 240.187 133.119C241.086 129.893 239.545 128.28 239.545 128.28Z" fill="#FFB362"/>
    <path d="M256.585 112.388C256.842 111.582 262.707 103.042 262.022 96.5907C261.337 90.0915 256.114 85.5374 254.744 83.7347C252.818 83.5924 247.038 92.7481 249.649 101.856C252.304 111.012 255.515 115.709 256.585 112.388Z" fill="#FFB362"/>
    <path d="M270.798 94.1714C273.752 88.7633 274.352 78.2318 279.66 75.6701C284.969 73.1558 287.367 71.0211 287.409 75.0534C287.495 79.1332 287.966 90.4712 279.361 94.5035C270.798 98.4884 269.428 96.6857 270.798 94.1714Z" fill="#FFB362"/>
    <path d="M265.276 94.7408C262.665 92.4638 255.387 86.439 257.998 75.0536C258.812 71.6854 259.283 70.3096 261.166 71.3533C263.05 72.4444 268.701 76.3819 269.215 82.6438C269.814 90.1867 266.518 92.8907 266.818 95.0255C267.032 96.4961 266.475 96.7807 266.218 96.4961C265.533 95.7371 265.276 94.7408 265.276 94.7408Z" fill="#FFB362"/>
    <path d="M271.312 76.3345C268.101 75.0537 261.894 69.1238 262.236 62.1502C262.579 55.1292 262.793 56.1729 265.276 57.1691C267.759 58.1653 273.367 60.727 273.453 67.2736C273.539 73.8203 272.169 74.6267 272.597 76.2397C273.282 78.8488 272.64 79.0386 272.169 77.9475C271.698 76.8089 271.312 76.3345 271.312 76.3345Z" fill="#FFB362"/>
    <path d="M280.303 70.9261C283.857 69.3131 285.997 66.7514 287.881 61.7229C289.765 56.7417 289.123 47.6334 287.068 48.2976C285.056 48.9617 280.475 50.1477 278.976 55.6032C277.478 61.1062 278.12 69.5503 277.564 70.9261C277.05 72.3018 275.551 71.5902 277.05 72.3018C278.634 73.1083 280.303 70.9261 280.303 70.9261Z" fill="#FFB362"/>
    <path d="M275.08 57.5012C276.021 51.9508 273.282 45.1196 266.432 42.8425C261.765 41.3244 262.45 42.036 262.621 44.0759C262.793 46.1158 263.82 52.3303 267.031 54.7023C270.242 57.0743 272.597 58.45 273.496 59.209C274.437 59.9206 275.08 57.5012 275.08 57.5012Z" fill="#FFB362"/>
    <path d="M280.56 48.1553C283.471 45.4987 286.896 40.8497 285.012 33.6864C282.444 28.8001 282.315 27.0923 281.373 28.5629C280.474 30.0335 275.465 33.544 275.808 39.5214C276.15 45.4987 278.376 51.8556 278.376 51.8556L280.56 48.1553Z" fill="#FFB362"/>
    <path d="M273.196 41.9409C268.701 41.2767 261.936 40.328 260.738 31.1247C260.31 30.0811 260.566 29.322 262.579 29.5592C264.591 29.7964 268.658 29.3695 270.841 33.1646C272.982 36.9123 273.196 41.9409 273.196 41.9409Z" fill="#FFB362"/>
    <path d="M275.508 29.891C276.364 28.373 281.202 22.5854 276.792 16.3708C275.764 12.3385 274.394 12.6231 272.896 15.2797C271.398 17.9363 270.969 25.2894 272.768 29.0371C274.523 32.7848 274.18 32.263 275.508 29.891Z" fill="#FFB362"/>
    <path d="M268.273 24.4359C262.194 25.8116 259.668 23.7243 257.228 20.8779C254.787 18.0316 253.845 17.6521 253.931 16.3238C254.017 14.9955 258.854 14.6159 262.151 15.4224C265.448 16.2289 268.016 21.21 268.273 24.4359Z" fill="#FFB362"/>
    <path d="M264.419 12.7657C258.725 12.2913 251.918 8.4962 250.847 2.0919C249.906 -0.0903046 249.906 -0.0903048 253.545 0.052013C257.226 0.146891 263.263 2.85093 264.419 12.7657Z" fill="#FFB362"/>
    <path d="M267.93 15.375C266.346 12.1491 263.863 7.45261 267.459 1.57014C269.643 2.09197 275.294 9.16042 270.413 14.9006C268.958 17.2725 267.93 15.375 267.93 15.375Z" fill="#FFB362"/>
    <path d="M261.979 7.31043C270.67 20.119 283.771 46.9222 277.22 77.1884C273.753 93.2703 263.906 111.44 251.362 125.529C241.772 136.25 230.341 143.603 220.366 151.336C217.326 153.708 210.733 159.353 207.18 163.243C205.168 165.425 202.599 162.627 204.44 160.776C212.703 152.19 216.556 151.194 220.58 147.493C225.632 142.702 308.088 96.4013 262.793 10.5363C255.6 5.12822 261.979 7.31043 261.979 7.31043Z" fill="#FFB362"/>
    <path d="M124.648 9.768L126.448 10.224C125.128 13.776 122.992 17.112 120.76 19.272C120.4 18.96 119.656 18.36 119.2 18.12C121.48 16.128 123.472 13.008 124.648 9.768ZM124.264 12.744H139.744V14.496H123.4L124.264 12.744ZM123.088 18.192H139.216V19.872H124.888V25.56H123.088V18.192ZM119.128 24.648H140.872V26.4H119.128V24.648ZM130.288 13.656H132.136V31.944H130.288V13.656Z" fill="#333333"/>
    <path d="M150.328 24.552H157.6V25.944H150.328V24.552ZM150.256 20.928H158.44V29.688H150.256V28.296H156.736V22.344H150.256V20.928ZM149.464 20.928H151.12V30.912H149.464V20.928ZM145.048 14.28H151.72V15.6H145.048V14.28ZM156.112 14.28H162.904V15.6H156.112V14.28ZM162.16 10.872H163.96V29.544C163.96 30.696 163.696 31.296 162.928 31.608C162.16 31.896 160.864 31.92 158.848 31.92C158.776 31.416 158.488 30.576 158.224 30.072C159.688 30.144 161.152 30.12 161.584 30.096C162.016 30.096 162.16 29.952 162.16 29.544V10.872ZM145.192 10.872H152.872V19.128H145.192V17.736H151.168V12.264H145.192V10.872ZM163.048 10.872V12.264H156.76V17.784H163.048V19.152H155.032V10.872H163.048ZM144.16 10.872H145.936V31.944H144.16V10.872Z" fill="#333333"/>
</svg>
